<svg width="159" height="21" viewBox="0 0 159 21" fill="none" xmlns="http://www.w3.org/2000/svg">
<path d="M85.8878 15.04C85.8878 15.7067 85.7211 16.3333 85.3878 16.92C85.0678 17.5067 84.5878 18 83.9478 18.4C83.3211 18.8 82.5745 19.04 81.7078 19.12V20.74H80.4078V19.12C79.1545 19 78.1411 18.6067 77.3678 17.94C76.5945 17.2733 76.2078 16.3933 76.2078 15.3H78.6478C78.6878 15.82 78.8545 16.2533 79.1478 16.6C79.4411 16.9333 79.8611 17.1467 80.4078 17.24V12.84C79.5145 12.6133 78.7878 12.3867 78.2278 12.16C77.6678 11.92 77.1878 11.5467 76.7878 11.04C76.4011 10.5333 76.2078 9.84 76.2078 8.96C76.2078 7.85333 76.5945 6.94 77.3678 6.22C78.1411 5.48667 79.1545 5.06 80.4078 4.94V3.32H81.7078V4.94C82.8811 5.04667 83.8211 5.42 84.5278 6.06C85.2478 6.68667 85.6545 7.55333 85.7478 8.66H83.3078C83.2678 8.24667 83.1078 7.88 82.8278 7.56C82.5478 7.22667 82.1745 7 81.7078 6.88V11.2C82.6011 11.4133 83.3278 11.64 83.8878 11.88C84.4478 12.1067 84.9211 12.4733 85.3078 12.98C85.6945 13.4733 85.8878 14.16 85.8878 15.04ZM78.5278 8.84C78.5278 9.38667 78.6878 9.81333 79.0078 10.12C79.3411 10.4267 79.8078 10.6733 80.4078 10.86V6.82C79.8345 6.88667 79.3745 7.09333 79.0278 7.44C78.6945 7.78667 78.5278 8.25333 78.5278 8.84ZM81.7078 17.24C82.2945 17.1467 82.7545 16.9133 83.0878 16.54C83.4211 16.1533 83.5878 15.6933 83.5878 15.16C83.5878 14.6267 83.4211 14.2133 83.0878 13.92C82.7678 13.6133 82.3078 13.3667 81.7078 13.18V17.24ZM88.9356 15.96V14.24L95.6556 4.6H98.4156V13.98H100.276V15.96H98.4156V19H96.1756V15.96H88.9356ZM96.2756 6.92L91.5556 13.98H96.2756V6.92ZM111.565 6.38H104.865V10.36C105.145 9.98667 105.558 9.67333 106.105 9.42C106.665 9.16667 107.258 9.04 107.885 9.04C109.005 9.04 109.912 9.28 110.605 9.76C111.312 10.24 111.812 10.8467 112.105 11.58C112.412 12.3133 112.565 13.0867 112.565 13.9C112.565 14.8867 112.372 15.7667 111.985 16.54C111.612 17.3 111.045 17.9 110.285 18.34C109.538 18.78 108.618 19 107.525 19C106.072 19 104.905 18.64 104.025 17.92C103.145 17.2 102.618 16.2467 102.445 15.06H104.665C104.812 15.6867 105.138 16.1867 105.645 16.56C106.152 16.92 106.785 17.1 107.545 17.1C108.492 17.1 109.198 16.8133 109.665 16.24C110.145 15.6667 110.385 14.9067 110.385 13.96C110.385 13 110.145 12.2667 109.665 11.76C109.185 11.24 108.478 10.98 107.545 10.98C106.892 10.98 106.338 11.1467 105.885 11.48C105.445 11.8 105.125 12.24 104.925 12.8H102.765V4.38H111.565V6.38ZM114.938 11.52C114.938 9.21333 115.325 7.41333 116.098 6.12C116.885 4.81333 118.232 4.16 120.138 4.16C122.045 4.16 123.385 4.81333 124.158 6.12C124.945 7.41333 125.338 9.21333 125.338 11.52C125.338 13.8533 124.945 15.68 124.158 17C123.385 18.3067 122.045 18.96 120.138 18.96C118.232 18.96 116.885 18.3067 116.098 17C115.325 15.68 114.938 13.8533 114.938 11.52ZM123.098 11.52C123.098 10.44 123.025 9.52667 122.878 8.78C122.745 8.03333 122.465 7.42667 122.038 6.96C121.612 6.48 120.978 6.24 120.138 6.24C119.298 6.24 118.665 6.48 118.238 6.96C117.812 7.42667 117.525 8.03333 117.378 8.78C117.245 9.52667 117.178 10.44 117.178 11.52C117.178 12.64 117.245 13.58 117.378 14.34C117.512 15.1 117.792 15.7133 118.218 16.18C118.658 16.6467 119.298 16.88 120.138 16.88C120.978 16.88 121.612 16.6467 122.038 16.18C122.478 15.7133 122.765 15.1 122.898 14.34C123.032 13.58 123.098 12.64 123.098 11.52ZM128.971 19.14C128.557 19.14 128.211 19 127.931 18.72C127.651 18.44 127.511 18.0933 127.511 17.68C127.511 17.2667 127.651 16.92 127.931 16.64C128.211 16.36 128.557 16.22 128.971 16.22C129.371 16.22 129.711 16.36 129.991 16.64C130.271 16.92 130.411 17.2667 130.411 17.68C130.411 18.0933 130.271 18.44 129.991 18.72C129.711 19 129.371 19.14 128.971 19.14ZM132.575 11.52C132.575 9.21333 132.962 7.41333 133.735 6.12C134.522 4.81333 135.868 4.16 137.775 4.16C139.682 4.16 141.022 4.81333 141.795 6.12C142.582 7.41333 142.975 9.21333 142.975 11.52C142.975 13.8533 142.582 15.68 141.795 17C141.022 18.3067 139.682 18.96 137.775 18.96C135.868 18.96 134.522 18.3067 133.735 17C132.962 15.68 132.575 13.8533 132.575 11.52ZM140.735 11.52C140.735 10.44 140.662 9.52667 140.515 8.78C140.382 8.03333 140.102 7.42667 139.675 6.96C139.248 6.48 138.615 6.24 137.775 6.24C136.935 6.24 136.302 6.48 135.875 6.96C135.448 7.42667 135.162 8.03333 135.015 8.78C134.882 9.52667 134.815 10.44 134.815 11.52C134.815 12.64 134.882 13.58 135.015 14.34C135.148 15.1 135.428 15.7133 135.855 16.18C136.295 16.6467 136.935 16.88 137.775 16.88C138.615 16.88 139.248 16.6467 139.675 16.18C140.115 15.7133 140.402 15.1 140.535 14.34C140.668 13.58 140.735 12.64 140.735 11.52ZM145.388 11.52C145.388 9.21333 145.774 7.41333 146.548 6.12C147.334 4.81333 148.681 4.16 150.588 4.16C152.494 4.16 153.834 4.81333 154.608 6.12C155.394 7.41333 155.788 9.21333 155.788 11.52C155.788 13.8533 155.394 15.68 154.608 17C153.834 18.3067 152.494 18.96 150.588 18.96C148.681 18.96 147.334 18.3067 146.548 17C145.774 15.68 145.388 13.8533 145.388 11.52ZM153.548 11.52C153.548 10.44 153.474 9.52667 153.328 8.78C153.194 8.03333 152.914 7.42667 152.488 6.96C152.061 6.48 151.428 6.24 150.588 6.24C149.748 6.24 149.114 6.48 148.688 6.96C148.261 7.42667 147.974 8.03333 147.828 8.78C147.694 9.52667 147.628 10.44 147.628 11.52C147.628 12.64 147.694 13.58 147.828 14.34C147.961 15.1 148.241 15.7133 148.668 16.18C149.108 16.6467 149.748 16.88 150.588 16.88C151.428 16.88 152.061 16.6467 152.488 16.18C152.928 15.7133 153.214 15.1 153.348 14.34C153.481 13.58 153.548 12.64 153.548 11.52Z" fill="#8B8E99"/>
<path d="M159 12.5L72 12.5" stroke="#8B8E99" stroke-width="2"/>
</svg>
