<svg width="79" height="18" viewBox="0 0 79 18" fill="none" xmlns="http://www.w3.org/2000/svg">
<path d="M9.92297 12.04C9.92297 12.7067 9.7563 13.3333 9.42297 13.92C9.10297 14.5067 8.62297 15 7.98297 15.4C7.3563 15.8 6.60964 16.04 5.74297 16.12V17.74H4.44297V16.12C3.18964 16 2.1763 15.6067 1.40297 14.94C0.629636 14.2733 0.242969 13.3933 0.242969 12.3H2.68297C2.72297 12.82 2.88964 13.2533 3.18297 13.6C3.4763 13.9333 3.8963 14.1467 4.44297 14.24V9.84C3.54964 9.61333 2.82297 9.38667 2.26297 9.16C1.70297 8.92 1.22297 8.54667 0.822969 8.04C0.436302 7.53333 0.242969 6.84 0.242969 5.96C0.242969 4.85333 0.629636 3.94 1.40297 3.22C2.1763 2.48667 3.18964 2.06 4.44297 1.94V0.319999H5.74297V1.94C6.9163 2.04667 7.8563 2.42 8.56297 3.06C9.28297 3.68667 9.68964 4.55333 9.78297 5.66H7.34297C7.30297 5.24667 7.14297 4.88 6.86297 4.56C6.58297 4.22667 6.20964 4 5.74297 3.88V8.2C6.6363 8.41333 7.36297 8.64 7.92297 8.88C8.48297 9.10667 8.9563 9.47333 9.34297 9.98C9.72964 10.4733 9.92297 11.16 9.92297 12.04ZM2.56297 5.84C2.56297 6.38667 2.72297 6.81333 3.04297 7.12C3.3763 7.42667 3.84297 7.67333 4.44297 7.86V3.82C3.86964 3.88667 3.40964 4.09333 3.06297 4.44C2.72964 4.78667 2.56297 5.25333 2.56297 5.84ZM5.74297 14.24C6.32964 14.1467 6.78964 13.9133 7.12297 13.54C7.4563 13.1533 7.62297 12.6933 7.62297 12.16C7.62297 11.6267 7.4563 11.2133 7.12297 10.92C6.80297 10.6133 6.34297 10.3667 5.74297 10.18V14.24ZM13.2108 5.02C13.2908 3.78 13.7641 2.81333 14.6308 2.12C15.5108 1.42667 16.6308 1.08 17.9908 1.08C18.9241 1.08 19.7308 1.24667 20.4108 1.58C21.0908 1.91333 21.6041 2.36667 21.9508 2.94C22.2974 3.51333 22.4708 4.16 22.4708 4.88C22.4708 5.70667 22.2508 6.41333 21.8108 7C21.3708 7.58667 20.8441 7.98 20.2308 8.18V8.26C21.0174 8.5 21.6308 8.94 22.0708 9.58C22.5108 10.2067 22.7308 11.0133 22.7308 12C22.7308 12.7867 22.5508 13.4867 22.1908 14.1C21.8308 14.7133 21.2974 15.2 20.5908 15.56C19.8841 15.9067 19.0374 16.08 18.0508 16.08C16.6108 16.08 15.4241 15.7133 14.4908 14.98C13.5708 14.2333 13.0774 13.1667 13.0108 11.78H15.2108C15.2641 12.4867 15.5374 13.0667 16.0308 13.52C16.5241 13.96 17.1908 14.18 18.0308 14.18C18.8441 14.18 19.4708 13.96 19.9108 13.52C20.3508 13.0667 20.5708 12.4867 20.5708 11.78C20.5708 10.8467 20.2708 10.1867 19.6708 9.8C19.0841 9.4 18.1774 9.2 16.9508 9.2H16.4308V7.32H16.9708C18.0508 7.30667 18.8708 7.12667 19.4308 6.78C20.0041 6.43333 20.2908 5.88667 20.2908 5.14C20.2908 4.5 20.0841 3.99333 19.6708 3.62C19.2574 3.23333 18.6708 3.04 17.9108 3.04C17.1641 3.04 16.5841 3.23333 16.1708 3.62C15.7574 3.99333 15.5108 4.46 15.4308 5.02H13.2108ZM25.1258 8.52C25.1258 6.21333 25.5124 4.41333 26.2858 3.12C27.0724 1.81333 28.4191 1.16 30.3258 1.16C32.2324 1.16 33.5724 1.81333 34.3458 3.12C35.1324 4.41333 35.5258 6.21333 35.5258 8.52C35.5258 10.8533 35.1324 12.68 34.3458 14C33.5724 15.3067 32.2324 15.96 30.3258 15.96C28.4191 15.96 27.0724 15.3067 26.2858 14C25.5124 12.68 25.1258 10.8533 25.1258 8.52ZM33.2858 8.52C33.2858 7.44 33.2124 6.52667 33.0658 5.78C32.9324 5.03333 32.6524 4.42667 32.2258 3.96C31.7991 3.48 31.1658 3.24 30.3258 3.24C29.4858 3.24 28.8524 3.48 28.4258 3.96C27.9991 4.42667 27.7124 5.03333 27.5658 5.78C27.4324 6.52667 27.3658 7.44 27.3658 8.52C27.3658 9.64 27.4324 10.58 27.5658 11.34C27.6991 12.1 27.9791 12.7133 28.4058 13.18C28.8458 13.6467 29.4858 13.88 30.3258 13.88C31.1658 13.88 31.7991 13.6467 32.2258 13.18C32.6658 12.7133 32.9524 12.1 33.0858 11.34C33.2191 10.58 33.2858 9.64 33.2858 8.52ZM37.9383 8.52C37.9383 6.21333 38.3249 4.41333 39.0983 3.12C39.8849 1.81333 41.2316 1.16 43.1383 1.16C45.0449 1.16 46.3849 1.81333 47.1583 3.12C47.9449 4.41333 48.3383 6.21333 48.3383 8.52C48.3383 10.8533 47.9449 12.68 47.1583 14C46.3849 15.3067 45.0449 15.96 43.1383 15.96C41.2316 15.96 39.8849 15.3067 39.0983 14C38.3249 12.68 37.9383 10.8533 37.9383 8.52ZM46.0983 8.52C46.0983 7.44 46.0249 6.52667 45.8783 5.78C45.7449 5.03333 45.4649 4.42667 45.0383 3.96C44.6116 3.48 43.9783 3.24 43.1383 3.24C42.2983 3.24 41.6649 3.48 41.2383 3.96C40.8116 4.42667 40.5249 5.03333 40.3783 5.78C40.2449 6.52667 40.1783 7.44 40.1783 8.52C40.1783 9.64 40.2449 10.58 40.3783 11.34C40.5116 12.1 40.7916 12.7133 41.2183 13.18C41.6583 13.6467 42.2983 13.88 43.1383 13.88C43.9783 13.88 44.6116 13.6467 45.0383 13.18C45.4783 12.7133 45.7649 12.1 45.8983 11.34C46.0316 10.58 46.0983 9.64 46.0983 8.52ZM51.9708 16.14C51.5574 16.14 51.2108 16 50.9308 15.72C50.6508 15.44 50.5108 15.0933 50.5108 14.68C50.5108 14.2667 50.6508 13.92 50.9308 13.64C51.2108 13.36 51.5574 13.22 51.9708 13.22C52.3708 13.22 52.7108 13.36 52.9908 13.64C53.2708 13.92 53.4108 14.2667 53.4108 14.68C53.4108 15.0933 53.2708 15.44 52.9908 15.72C52.7108 16 52.3708 16.14 51.9708 16.14ZM55.575 8.52C55.575 6.21333 55.9617 4.41333 56.735 3.12C57.5217 1.81333 58.8683 1.16 60.775 1.16C62.6817 1.16 64.0217 1.81333 64.795 3.12C65.5817 4.41333 65.975 6.21333 65.975 8.52C65.975 10.8533 65.5817 12.68 64.795 14C64.0217 15.3067 62.6817 15.96 60.775 15.96C58.8683 15.96 57.5217 15.3067 56.735 14C55.9617 12.68 55.575 10.8533 55.575 8.52ZM63.735 8.52C63.735 7.44 63.6617 6.52667 63.515 5.78C63.3817 5.03333 63.1017 4.42667 62.675 3.96C62.2483 3.48 61.615 3.24 60.775 3.24C59.935 3.24 59.3017 3.48 58.875 3.96C58.4483 4.42667 58.1617 5.03333 58.015 5.78C57.8817 6.52667 57.815 7.44 57.815 8.52C57.815 9.64 57.8817 10.58 58.015 11.34C58.1483 12.1 58.4283 12.7133 58.855 13.18C59.295 13.6467 59.935 13.88 60.775 13.88C61.615 13.88 62.2483 13.6467 62.675 13.18C63.115 12.7133 63.4017 12.1 63.535 11.34C63.6683 10.58 63.735 9.64 63.735 8.52ZM68.3875 8.52C68.3875 6.21333 68.7742 4.41333 69.5475 3.12C70.3342 1.81333 71.6808 1.16 73.5875 1.16C75.4942 1.16 76.8342 1.81333 77.6075 3.12C78.3942 4.41333 78.7875 6.21333 78.7875 8.52C78.7875 10.8533 78.3942 12.68 77.6075 14C76.8342 15.3067 75.4942 15.96 73.5875 15.96C71.6808 15.96 70.3342 15.3067 69.5475 14C68.7742 12.68 68.3875 10.8533 68.3875 8.52ZM76.5475 8.52C76.5475 7.44 76.4742 6.52667 76.3275 5.78C76.1942 5.03333 75.9142 4.42667 75.4875 3.96C75.0608 3.48 74.4275 3.24 73.5875 3.24C72.7475 3.24 72.1142 3.48 71.6875 3.96C71.2608 4.42667 70.9742 5.03333 70.8275 5.78C70.6942 6.52667 70.6275 7.44 70.6275 8.52C70.6275 9.64 70.6942 10.58 70.8275 11.34C70.9608 12.1 71.2408 12.7133 71.6675 13.18C72.1075 13.6467 72.7475 13.88 73.5875 13.88C74.4275 13.88 75.0608 13.6467 75.4875 13.18C75.9275 12.7133 76.2142 12.1 76.3475 11.34C76.4808 10.58 76.5475 9.64 76.5475 8.52Z" fill="#8B8E99"/>
</svg>
