<svg width="115" height="22" viewBox="0 0 115 22" fill="none" xmlns="http://www.w3.org/2000/svg">
<path d="M13.8 3.72449L16.169 8.33541L21.4667 9.07935L17.6333 12.6664L18.538 17.734L13.8 15.3402L9.062 17.734L9.96666 12.6664L6.13333 9.07935L11.431 8.33541L13.8 3.72449Z" fill="#1E1D1D" stroke="#1E1D1D" stroke-width="2" stroke-linecap="round" stroke-linejoin="round"/>
<path d="M58.2667 3.72449L60.6357 8.33541L65.9333 9.07935L62.1 12.6664L63.0047 17.734L58.2667 15.3402L53.5287 17.734L54.4333 12.6664L50.6 9.07935L55.8977 8.33541L58.2667 3.72449Z" fill="#1E1D1D" stroke="#1E1D1D" stroke-width="2" stroke-linecap="round" stroke-linejoin="round"/>
<path d="M80.5 3.72449L82.869 8.33541L88.1667 9.07935L84.3333 12.6664L85.238 17.734L80.5 15.3402L75.762 17.734L76.6667 12.6664L72.8333 9.07935L78.131 8.33541L80.5 3.72449Z" fill="#1E1D1D" stroke="#1E1D1D" stroke-width="2" stroke-linecap="round" stroke-linejoin="round"/>
<path d="M102.733 3.72449L105.102 8.33541L110.4 9.07935L106.567 12.6664L107.471 17.734L102.733 15.3402L97.9953 17.734L98.9 12.6664L95.0667 9.07935L100.364 8.33541L102.733 3.72449Z" fill="#1E1D1D" stroke="#1E1D1D" stroke-width="2" stroke-linecap="round" stroke-linejoin="round"/>
<path d="M36.0333 3.72449L38.4023 8.33541L43.7 9.07935L39.8667 12.6664L40.7713 17.734L36.0333 15.3402L31.2953 17.734L32.2 12.6664L28.3667 9.07935L33.6643 8.33541L36.0333 3.72449Z" fill="#1E1D1D" stroke="#1E1D1D" stroke-width="2" stroke-linecap="round" stroke-linejoin="round"/>
</svg>
